<svg width="190" height="250" viewBox="0 0 190 250" fill="none" xmlns="http://www.w3.org/2000/svg">
<circle cx="5" cy="5" r="5" fill="#747474" fill-opacity="0.25"/>
<circle cx="65" cy="5" r="5" fill="#747474" fill-opacity="0.25"/>
<circle cx="125" cy="5" r="5" fill="#747474" fill-opacity="0.25"/>
<circle cx="185" cy="5" r="5" fill="#747474" fill-opacity="0.25"/>
<circle cx="5" cy="65" r="5" fill="#747474" fill-opacity="0.25"/>
<circle cx="65" cy="65" r="5" fill="#747474" fill-opacity="0.25"/>
<circle cx="125" cy="65" r="5" fill="#747474" fill-opacity="0.25"/>
<circle cx="185" cy="65" r="5" fill="#747474" fill-opacity="0.25"/>
<circle cx="5" cy="125" r="5" fill="#747474" fill-opacity="0.25"/>
<circle cx="65" cy="125" r="5" fill="#747474" fill-opacity="0.25"/>
<circle cx="125" cy="125" r="5" fill="#747474" fill-opacity="0.25"/>
<circle cx="185" cy="125" r="5" fill="#747474" fill-opacity="0.25"/>
<circle cx="5" cy="185" r="5" fill="#747474" fill-opacity="0.25"/>
<circle cx="65" cy="185" r="5" fill="#747474" fill-opacity="0.25"/>
<circle cx="125" cy="185" r="5" fill="#747474" fill-opacity="0.25"/>
<circle cx="185" cy="185" r="5" fill="#747474" fill-opacity="0.25"/>
<circle cx="5" cy="245" r="5" fill="#747474" fill-opacity="0.25"/>
<circle cx="65" cy="245" r="5" fill="#747474" fill-opacity="0.25"/>
<circle cx="125" cy="245" r="5" fill="#747474" fill-opacity="0.25"/>
<circle cx="185" cy="245" r="5" fill="#747474" fill-opacity="0.25"/>
</svg>
