<svg width="25" height="25" viewBox="0 0 25 25" fill="none" xmlns="http://www.w3.org/2000/svg">
<path fill-rule="evenodd" clip-rule="evenodd" d="M5.37959 1.13698C4.20801 -0.0345922 2.30852 -0.0345924 1.13695 1.13698C-0.034628 2.30855 -0.0346278 4.20805 1.13695 5.37962L8.03123 12.2739L1.13693 19.1682C-0.0346426 20.3398 -0.0346429 22.2393 1.13693 23.4109C2.3085 24.5824 4.208 24.5824 5.37957 23.4109L12.2739 16.5166L19.1682 23.4108C20.3397 24.5824 22.2392 24.5824 23.4108 23.4108C24.5824 22.2393 24.5824 20.3398 23.4108 19.1682L16.5165 12.2739L23.4108 5.37963C24.5824 4.20806 24.5824 2.30857 23.4108 1.13699C22.2392 -0.0345803 20.3397 -0.0345803 19.1682 1.13699L12.2739 8.03127L5.37959 1.13698Z" fill="#747474" fill-opacity="0.25"/>
</svg>
